<svg id="Calque_1" data-name="Calque 1" xmlns="http://www.w3.org/2000/svg" viewBox="0 0 595.28 841.89"><defs><style>.cls-1{fill:#fff;}.cls-1,.cls-2,.cls-3{stroke:#231f20;stroke-miterlimit:10;}.cls-2,.cls-3{fill:none;}.cls-3{font-size:66px;font-family:MyriadPro-Regular, Myriad Pro;}</style></defs><title>logo_zours</title><ellipse class="cls-1" cx="294.07" cy="368.39" rx="44.61" ry="38.96"/><path class="cls-2" d="M332.55,341.15a39.46,39.46,0,0,1,11,27c0,23.69-22.08,42.89-49.32,42.89s-49.32-19.2-49.32-42.89A39.67,39.67,0,0,1,257.08,340"/><path class="cls-2" d="M273,329.43c1.17-.48,2.36-.93,3.58-1.34a55.92,55.92,0,0,1,17.64-2.82,55.12,55.12,0,0,1,22.29,4.62"/><path class="cls-2" d="M273,329.43S251.86,319.11,257.08,340"/><path class="cls-2" d="M316.16,329.73s26-12.7,16.39,11.42"/><text class="cls-3" transform="translate(206.75 388.72)">Z</text><text class="cls-3" transform="translate(346.93 380.14)">urs</text></svg>